<svg width="99" height="24" viewBox="0 0 99 24" fill="#2E0B5E" xmlns="http://www.w3.org/2000/svg">
<g clip-path="url(#clip0_1118_1459)">
<path d="M25.9212 13.115H22.1377H18.3321H17.8662V13.1162H16.0509H14.9265L15.7217 13.9184L17.3121 15.524L19.4229 17.6523L20.05 18.2756L20.6748 18.8954L21.0063 19.224L21.3332 18.8907L21.9476 18.2639L22.5492 17.6511L26.2504 13.9172L27.0468 13.115H25.9212Z"/>
<path d="M23.4546 23.0199H16.9006L16.765 22.8796L15.9536 22.061C15.3972 22.3089 14.8211 22.5065 14.2357 22.6586C14.0758 22.7006 13.9054 22.7392 13.7303 22.7767C13.7129 22.7813 13.699 22.7837 13.6816 22.786C13.597 22.8036 13.5136 22.8199 13.4289 22.8351L13.4139 22.8375L13.4092 22.8398L13.3049 22.8573L13.1983 22.8749L13.1519 22.8819L13.1102 22.8889C13.0766 22.8936 13.0395 22.8983 13.0058 22.903L12.9792 22.9299H12.8146C12.7369 22.9392 12.6593 22.9474 12.5816 22.9568L12.5549 22.9591H12.5503C12.4703 22.9661 12.388 22.9731 12.3046 22.9813L12.2362 22.986C12.1828 22.9883 12.1318 22.993 12.0901 22.9953C12.0414 22.9977 11.9927 23 11.9464 23.0024C11.849 23.007 11.7516 23.0094 11.6577 23.0117C11.5731 23.0141 11.485 23.0164 11.3981 23.0164C5.11308 23.0199 0 17.8616 0 11.5187C0 5.17584 5.11308 0.0198975 11.3981 0.0198975C17.6831 0.0198975 22.7962 5.17817 22.7962 11.5187C22.7962 11.5877 22.7962 11.6591 22.7938 11.7245V11.7538H18.1607V11.5187C18.1607 7.75673 15.1271 4.69638 11.3981 4.69638C11.3274 4.69638 11.2543 4.69638 11.1848 4.70105H11.1384C11.0828 4.70339 11.0271 4.70573 10.968 4.71041H10.9391L10.9217 4.71275C10.8486 4.71743 10.7779 4.7221 10.713 4.73029L10.6956 4.73263C10.6377 4.73731 10.5786 4.74432 10.516 4.75485C10.4893 4.75719 10.4626 4.76186 10.4383 4.7642L10.4313 4.76654H10.4244C10.3827 4.77122 10.3421 4.77824 10.2934 4.78642L10.2575 4.79344L10.2424 4.79578L10.2308 4.79812C10.1914 4.80279 10.1555 4.80981 10.116 4.818L10.1045 4.82033C10.0198 4.83788 9.93869 4.85425 9.85639 4.87413C9.8448 4.87647 9.82973 4.87881 9.81698 4.88348L9.81466 4.88582L9.70338 4.91272C9.70338 4.91272 9.69411 4.91506 9.68831 4.91506L9.65933 4.92441H9.65701C9.61992 4.93377 9.58399 4.94429 9.55037 4.95365C9.45068 4.98054 9.35563 5.00978 9.26406 5.04369L9.24435 5.04837L9.23508 5.05071L9.22812 5.05305L9.22117 5.05539C9.17712 5.06942 9.13655 5.08462 9.09482 5.10216L9.07975 5.10684L9.07511 5.10918L9.05773 5.1162C9.01831 5.12789 8.98238 5.14309 8.94297 5.15829C8.84328 5.19805 8.73432 5.24366 8.60797 5.30096C8.57899 5.315 8.55001 5.32786 8.52103 5.34306L8.51408 5.34774L8.50712 5.35008C8.45612 5.37464 8.40743 5.39919 8.34716 5.42843C8.29615 5.45533 8.24747 5.48222 8.19646 5.50912L8.1814 5.51614L8.17212 5.52081C8.1188 5.55005 8.06548 5.57928 8.01448 5.61203L7.97275 5.63892H7.96811C7.92174 5.66582 7.87538 5.69506 7.83249 5.72195L7.81742 5.73131L7.81278 5.73365L7.79539 5.74534C7.75366 5.7699 7.71309 5.79679 7.67368 5.82369C7.56472 5.89736 7.48358 5.9535 7.40591 6.01197C7.3665 6.0412 7.32825 6.07044 7.28884 6.10084L7.25754 6.1254L7.2529 6.12774C7.2019 6.16984 7.1509 6.21077 7.10221 6.25053C7.03382 6.30666 6.96891 6.36279 6.90515 6.42243L6.8982 6.42945L6.89124 6.43412C6.85763 6.46336 6.82285 6.49493 6.79156 6.52768L6.76721 6.5499C6.71621 6.59667 6.66521 6.64813 6.61188 6.70192C6.54581 6.76741 6.4809 6.8364 6.40323 6.92294L6.39628 6.93229L6.38701 6.93931C6.31166 7.02818 6.24095 7.10654 6.17836 7.18723C6.09837 7.28312 6.02303 7.38369 5.94768 7.48426L5.94073 7.49712C5.92102 7.52402 5.90479 7.54857 5.88045 7.58249C5.85147 7.62225 5.82481 7.66084 5.79815 7.70294L5.78656 7.72048C5.76222 7.75439 5.74251 7.78596 5.72049 7.82105L5.70078 7.85028C5.52806 8.12276 5.37042 8.41394 5.23711 8.71331C5.21741 8.75541 5.20002 8.79634 5.18147 8.83844C5.11656 8.99748 5.05281 9.1647 4.99717 9.32842L4.99021 9.35064C4.97746 9.38221 4.96819 9.41145 4.95891 9.44887C4.90096 9.63013 4.85227 9.80905 4.81286 9.98329C4.80011 10.0371 4.78852 10.0909 4.77577 10.147C4.68651 10.5961 4.64014 11.0556 4.64014 11.5164C4.64014 11.7105 4.6471 11.9035 4.66449 12.0929C4.6668 12.1268 4.66912 12.1619 4.67376 12.2005C4.6784 12.2718 4.68883 12.3408 4.6981 12.4133C4.70274 12.4601 4.70969 12.5045 4.71781 12.556C4.72476 12.6028 4.73288 12.6519 4.74215 12.6987L4.74447 12.7162C4.75606 12.7875 4.76881 12.8554 4.78388 12.929L4.79547 12.9782L4.80474 13.0273L4.81402 13.0717L4.82561 13.1185C4.83256 13.1454 4.83836 13.1723 4.84531 13.1968L4.84763 13.2039L4.84995 13.2085C4.90327 13.4284 4.97166 13.6471 5.05165 13.8704C5.06672 13.9102 5.08063 13.9488 5.0957 13.9874L5.09801 13.992L5.10033 13.9967C5.22436 14.3183 5.37505 14.6317 5.55009 14.9334C5.56979 14.9732 5.59414 15.0094 5.615 15.048C5.63471 15.0772 5.65209 15.1088 5.67528 15.1439C5.69035 15.1708 5.70658 15.1954 5.72396 15.2199L5.73903 15.2445C5.7854 15.3181 5.8364 15.3942 5.89668 15.4772L5.90595 15.4947C5.93029 15.5263 5.95464 15.5602 5.97898 15.593L5.98362 15.5976L5.98593 15.6023C6.00796 15.6316 6.0323 15.6631 6.06128 15.7005C6.07867 15.7251 6.09721 15.7473 6.11692 15.7719L6.12156 15.7766L6.12619 15.7836C6.15285 15.8175 6.17952 15.8526 6.2085 15.8865C6.2792 15.9718 6.35455 16.0584 6.43917 16.1508C6.46583 16.18 6.49249 16.2092 6.52147 16.2396C6.7081 16.4361 6.91211 16.6244 7.12655 16.801L7.13583 16.8103C7.16249 16.8325 7.19147 16.8571 7.22856 16.884C7.27029 16.9179 7.31318 16.9495 7.36187 16.9869C7.40591 17.0208 7.45228 17.0559 7.5056 17.0921C7.5427 17.119 7.58095 17.1459 7.625 17.1752L7.62963 17.1775L7.63427 17.1822C7.65398 17.1974 7.676 17.2114 7.69455 17.2243L7.7015 17.229L7.70846 17.2336C7.74207 17.2559 7.77916 17.2781 7.8151 17.3026C8.30774 17.6137 8.83748 17.8616 9.39388 18.0359C9.44257 18.0499 9.49357 18.0674 9.55385 18.0826C9.60021 18.0978 9.6489 18.1095 9.69411 18.1224L9.7115 18.1271L9.72309 18.1294C9.75902 18.1388 9.79843 18.1493 9.8448 18.161L9.98274 18.1902C10.0245 18.1996 10.0627 18.2101 10.1045 18.2171C10.1752 18.23 10.2459 18.244 10.3154 18.2545H10.3224L10.3293 18.2569C10.3687 18.2639 10.407 18.2686 10.4603 18.2768C10.5044 18.2838 10.5473 18.2885 10.5936 18.2943H10.5959L10.6249 18.299C10.6632 18.3037 10.7026 18.306 10.742 18.3118H10.7594L10.7814 18.3142C10.9854 18.3341 11.1918 18.3434 11.3958 18.3434C11.6705 18.3434 11.9452 18.3259 12.2141 18.292L7.87538 13.9172L7.08135 13.1138H13.4417L13.6075 13.1161L13.7361 13.2191L13.7558 13.2331L13.7732 13.253L16.8369 16.3414L17.34 16.8489L17.4756 16.9892L19.4578 18.9866L19.6931 19.224L22.6594 22.2165L23.4534 23.0199H23.4546Z"/>
<path d="M29.6782 21.9289C28.7914 21.2027 28.3486 20.2426 28.3486 19.0498V18.016C28.3486 16.8419 28.81 15.8959 29.7338 15.179C30.6577 14.4622 31.876 14.1032 33.391 14.1032H35.0811C35.561 14.1032 36.0791 14.1686 36.6332 14.2984C37.1873 14.4294 37.695 14.606 38.1575 14.8294V13.3758C38.1575 12.9104 38.0056 12.5326 37.7008 12.2438C37.3959 11.9549 36.9937 11.8099 36.4953 11.8099H34.112C33.595 11.8099 33.1789 11.9316 32.8647 12.1736C32.5506 12.4157 32.3941 12.742 32.3941 13.1524H28.737C28.737 11.7924 29.2308 10.6978 30.2195 9.86755C31.2071 9.03843 32.5054 8.62329 34.112 8.62329H36.4953C38.1204 8.62329 39.4326 9.05714 40.4295 9.92368C41.4275 10.7902 41.9259 11.9409 41.9259 13.3758V22.7966H38.4345V21.1196C37.9917 21.6973 37.4458 22.1592 36.8001 22.503C36.1533 22.848 35.5158 23.0199 34.8887 23.0199H33.1708C31.7299 23.0199 30.5661 22.6562 29.6794 21.93L29.6782 21.9289ZM35.1645 20.1116C35.8473 20.1116 36.457 19.935 36.9937 19.5807C37.5292 19.2264 37.9176 18.7516 38.1575 18.1552V17.6804C37.8619 17.457 37.4504 17.2804 36.9241 17.1495C36.3979 17.0197 35.8392 16.9542 35.248 16.9542H33.5023C33.0595 16.9542 32.699 17.0664 32.4219 17.2898C32.1449 17.5132 32.0058 17.8114 32.0058 18.1844V18.9106C32.0058 19.2649 32.1577 19.5538 32.4625 19.7771C32.7674 20.0005 33.1696 20.1128 33.668 20.1128H35.1645V20.1116Z"/>
<path d="M43.2275 9.06998H46.7189V10.8592C47.0702 10.3189 47.5733 9.87687 48.2293 9.53189C48.8843 9.18692 49.5728 9.01501 50.2938 9.01501H52.1775V12.3139H50.2938C49.3143 12.3139 48.5203 12.6121 47.9106 13.2085C47.3008 13.8049 46.996 14.5686 46.996 15.5006V23.0199H43.2275V9.07115V9.06998Z"/>
<path d="M56.3204 22.3615C55.4244 21.9241 54.7277 21.309 54.2281 20.5162C53.7297 19.7245 53.4805 18.8158 53.4805 17.7903V14.1838C53.4805 13.0846 53.7297 12.1151 54.2281 11.2766C54.7266 10.4382 55.4244 9.78564 56.3204 9.32022C57.2165 8.85479 58.2458 8.62091 59.4096 8.62091H61.6259C63.3995 8.62091 64.8218 9.12376 65.8928 10.1306C66.9639 11.1375 67.4994 12.4788 67.4994 14.1557V17.119H57.2478V17.7903C57.2478 18.4054 57.4413 18.8989 57.8297 19.2719C58.218 19.645 58.7442 19.8309 59.4096 19.8309H61.5714C62.2183 19.8309 62.7399 19.6871 63.1375 19.397C63.5351 19.1082 63.7333 18.7305 63.7333 18.2651H67.4461C67.4461 19.1971 67.1969 20.0262 66.6984 20.7524C66.2 21.4786 65.5022 22.0387 64.6061 22.4293C63.7101 22.8211 62.6808 23.0164 61.517 23.0164H59.4108C58.247 23.0164 57.2165 22.7977 56.3216 22.3592L56.3204 22.3615ZM63.7878 14.3814V14.1581C63.7878 13.4319 63.5942 12.8495 63.2059 12.411C62.8176 11.9736 62.3006 11.7538 61.6538 11.7538H59.4096C58.7442 11.7538 58.2087 11.9865 57.803 12.4531C57.3961 12.9197 57.1933 13.5336 57.1933 14.2984V14.3826H63.7878V14.3814Z"/>
<path d="M71.6434 22.3615C70.7474 21.9241 70.0507 21.309 69.5511 20.5162C69.0527 19.7245 68.8035 18.8158 68.8035 17.7903V14.1838C68.8035 13.0846 69.0527 12.1151 69.5511 11.2766C70.0496 10.4382 70.7474 9.78564 71.6434 9.32022C72.5395 8.85479 73.5688 8.62091 74.7326 8.62091H76.9489C78.7225 8.62091 80.1448 9.12376 81.2158 10.1306C82.2869 11.1375 82.8224 12.4788 82.8224 14.1557V17.119H72.5708V17.7903C72.5708 18.4054 72.7643 18.8989 73.1527 19.2719C73.541 19.645 74.0672 19.8309 74.7326 19.8309H76.8933C77.5401 19.8309 78.0617 19.6871 78.4593 19.397C78.8558 19.1082 79.0551 18.7305 79.0551 18.2651H82.7679C82.7679 19.1971 82.5187 20.0262 82.0203 20.7524C81.5218 21.4786 80.824 22.0387 79.928 22.4293C79.032 22.8211 78.0026 23.0164 76.8388 23.0164H74.7326C73.5688 23.0164 72.5383 22.7977 71.6434 22.3592V22.3615ZM79.1108 14.3814V14.1581C79.1108 13.4319 78.9172 12.8495 78.5289 12.411C78.1406 11.9736 77.6236 11.7538 76.9767 11.7538H74.7326C74.0672 11.7538 73.5317 11.9865 73.126 12.4531C72.7191 12.9197 72.5163 13.5336 72.5163 14.2984V14.3826H79.1108V14.3814Z"/>
<path d="M97.5229 11.2509C97.0697 10.4125 96.4333 9.7646 95.6115 9.30853C94.7896 8.85246 93.8426 8.62326 92.7715 8.62326H90.8322C90.3338 8.62326 89.811 8.74488 89.2662 8.98695C88.7214 9.22901 88.2635 9.54592 87.8949 9.93768V2.67212H84.1265V3.22759V22.7954H87.6179V21.0062C87.9876 21.6026 88.4675 22.0867 89.0587 22.4597C89.6499 22.8328 90.2318 23.0187 90.8044 23.0187H92.7159C93.787 23.0187 94.7386 22.7813 95.5697 22.3054C96.4009 21.8306 97.0477 21.164 97.509 20.3069C97.9704 19.4497 98.2022 18.4627 98.2022 17.3436V14.1569C98.2022 13.0577 97.9762 12.0882 97.5229 11.2498V11.2509ZM94.4338 17.0652C94.4338 17.8476 94.2356 18.4814 93.838 18.9655C93.4404 19.4508 92.9187 19.6929 92.2719 19.6929H90.4706C89.8238 19.6929 89.2651 19.4649 88.7944 19.0076C88.3238 18.5516 88.0224 17.9505 87.8938 17.2044V14.8001C87.9679 13.9429 88.2543 13.253 88.7527 12.7314C89.2511 12.2098 89.8701 11.9491 90.6097 11.9491H92.3276C92.9558 11.9491 93.4636 12.1771 93.8519 12.6343C94.2402 13.0916 94.4338 13.6927 94.4338 14.4376V17.0652Z"/>
</g>
<defs>
<clipPath id="clip0_1118_1459">
<rect width="98.2022" height="23" fill="white" transform="translate(0 0.0198975)"/>
</clipPath>
</defs>
</svg>
